<svg width="26" height="26" viewBox="0 0 26 26" fill="none" xmlns="http://www.w3.org/2000/svg">
<path fill-rule="evenodd" clip-rule="evenodd" d="M2 2C1.44772 2 1 2.44772 1 3C1 3.55228 1.44772 4 2 4H4.7253L8.53172 18.7499C8.64568 19.1915 9.04395 19.5 9.5 19.5H20C20.4355 19.5 20.8209 19.2182 20.9529 18.8032L24.4529 7.8032C24.5497 7.49919 24.4955 7.16727 24.3072 6.90975C24.1189 6.65222 23.819 6.5 23.5 6.5H7.43599L6.46828 2.75012C6.35432 2.30854 5.95605 2 5.5 2H2ZM10.2747 17.5L7.95212 8.5H22.1324L19.2688 17.5H10.2747ZM11 23.5C11 24.3284 10.3284 25 9.5 25C8.67157 25 8 24.3284 8 23.5C8 22.6716 8.67157 22 9.5 22C10.3284 22 11 22.6716 11 23.5ZM22 23.5C22 24.3284 21.3284 25 20.5 25C19.6716 25 19 24.3284 19 23.5C19 22.6716 19.6716 22 20.5 22C21.3284 22 22 22.6716 22 23.5Z" fill="white"/>
</svg>
