<svg width="20" height="20" viewBox="0 0 20 20" fill="none" xmlns="http://www.w3.org/2000/svg">
<path fill-rule="evenodd" clip-rule="evenodd" d="M1 2C0.447715 2 0 2.44772 0 3C0 3.55228 0.447715 4 1 4H19C19.5523 4 20 3.55228 20 3C20 2.44772 19.5523 2 19 2H1ZM0 10C0 9.44772 0.447715 9 1 9H19C19.5523 9 20 9.44772 20 10C20 10.5523 19.5523 11 19 11H1C0.447715 11 0 10.5523 0 10ZM8 17C8 16.4477 8.44772 16 9 16H19C19.5523 16 20 16.4477 20 17C20 17.5523 19.5523 18 19 18H9C8.44771 18 8 17.5523 8 17Z" fill="white"/>
</svg>
