<svg width="14" height="14" viewBox="0 0 14 14" fill="none" xmlns="http://www.w3.org/2000/svg">
<path d="M11.303 2H2.69697C1.72727 2 1 2.72727 1 3.69697V10.1818C1 11.0909 1.72727 11.8788 2.69697 11.8788H11.303C12.2121 11.8788 13 11.1515 13 10.1818V3.69697C13 2.78788 12.2121 2 11.303 2ZM7 6.72727L2.27273 3.39394C2.33333 3.27273 2.51515 3.21212 2.69697 3.21212H11.303C11.4848 3.21212 11.6667 3.27273 11.7273 3.45455L7 6.72727ZM11.303 10.6667H2.69697C2.39394 10.6667 2.21212 10.4242 2.21212 10.1818V4.84848L6.69697 7.93939C6.87879 8.06061 7.12121 8.06061 7.36364 7.93939L11.7879 4.78788V10.1212C11.7879 10.4848 11.5455 10.6667 11.303 10.6667Z" fill="white" fill-opacity="0.6"/>
</svg>
