<svg width="26" height="26" viewBox="0 0 26 26" fill="none" xmlns="http://www.w3.org/2000/svg">
<path d="M16.6 11.4C17.4 10.5 17.9 9.3 17.9 8C17.9 5.2 15.7 3 12.9 3C10.1 3 7.9 5.2 7.9 8C7.9 9.3 8.4 10.5 9.2 11.4C5.6 12.6 3 16 3 20C3 21.7 4.3 23 6 23H20C21.7 23 23 21.7 23 20C23 15.9 20.3 12.5 16.6 11.4ZM13 5C14.7 5 16 6.3 16 8C16 9.7 14.7 11 13 11C11.3 11 10 9.7 10 8C10 6.3 11.3 5 13 5ZM20 21H6C5.4 21 5 20.6 5 20C5 16.1 8.1 13 12 13H13H14C17.9 13 21 16.1 21 20C21 20.6 20.6 21 20 21Z" fill="white"/>
</svg>
