<svg width="14" height="14" viewBox="0 0 14 14" fill="none" xmlns="http://www.w3.org/2000/svg">
<path d="M12.9914 9.38385L11.0364 7.54741C10.5625 7.07349 9.7924 7.13273 9.37772 7.60665L8.96304 8.08057C8.9038 8.13981 8.78532 8.19905 8.66684 8.13981C8.3114 7.96209 7.719 7.66589 7.06736 7.07349C6.41572 6.48109 6.06028 5.94793 5.88256 5.59249C5.82332 5.47401 5.82332 5.35553 5.9418 5.29629L6.35648 4.82237C6.8304 4.34845 6.77116 3.57833 6.29724 3.16365L4.34232 1.3272C3.8684 0.853285 3.09828 0.912525 2.6836 1.38645L1.4988 2.68973C1.32108 2.86745 1.08412 3.16365 1.02488 3.57833C0.906397 4.58541 1.08412 6.83653 4.4608 9.97625C7.77824 13.116 10.0886 13.116 11.0364 12.9383C11.3919 12.879 11.6881 12.6421 11.8658 12.4051L13.0506 11.1018C13.4653 10.5687 13.4653 9.79853 12.9914 9.38385ZM11.9843 10.4502L10.9772 11.5165C10.8587 11.635 10.7995 11.635 10.7402 11.6942C10.2071 11.8127 8.3114 11.9312 5.17168 9.02841C2.03196 6.12565 2.03196 4.17073 2.15044 3.69681C2.15044 3.63757 2.20968 3.57833 2.26892 3.45985L3.276 2.39353C3.39448 2.27505 3.5722 2.27505 3.69068 2.39353L5.23092 3.81529C5.3494 3.93377 5.3494 4.11149 5.23092 4.22997L4.87548 4.64465C4.63852 4.94085 4.4608 5.35553 4.63852 5.82945C4.81624 6.30337 5.29016 7.13273 6.238 7.96209C7.18584 8.85069 8.0152 9.20613 8.48912 9.38385C8.96304 9.56157 9.37772 9.38385 9.61468 9.08765L10.0294 8.67297C10.1478 8.55449 10.3256 8.55449 10.444 8.67297L11.9843 10.0947C12.0435 10.154 12.0435 10.3317 11.9843 10.4502Z" fill="white" fill-opacity="0.6"/>
</svg>
