<svg width="232" height="53" viewBox="0 0 232 53" fill="none" xmlns="http://www.w3.org/2000/svg">
<path d="M43.2086 29.813H38.6666V35.879H36.5986V40.052H38.6666V46.334C38.6666 50.331 40.5696 52.165 44.2546 52.165C45.6566 52.165 46.4836 51.899 46.4836 51.899V47.812C46.4836 47.812 45.8596 48.016 45.2976 48.016C43.6146 48.016 43.2076 47.018 43.2076 46.335V40.053H46.7226V35.88H43.2076V29.813H43.2086Z" fill="white"/>
<path d="M8.76 47.9821C6.413 47.9821 4.66 46.1021 4.66 43.7821C4.66 41.4631 6.413 39.5821 8.76 39.5821C10.094 39.5821 11.284 40.1901 12.065 41.1421L14.992 38.2121C13.407 36.4621 11.086 35.5701 8.503 35.5701C3.722 35.5711 0 39.1291 0 43.7821C0 48.4371 3.722 51.9961 8.503 51.9961C11.188 51.9961 13.584 51.0171 15.171 49.1491L12.23 46.2061C11.459 47.2811 10.193 47.9821 8.76 47.9821Z" fill="white"/>
<path d="M69.7989 35.571C65.0219 35.571 61.1709 39.129 61.1709 43.782C61.1709 48.437 65.0219 51.996 69.7989 51.996C74.5799 51.996 78.4299 48.436 78.4299 43.782C78.4309 39.129 74.5799 35.571 69.7989 35.571ZM69.7989 47.982C67.4509 47.982 65.8289 46.102 65.8289 43.782C65.8289 41.463 67.4509 39.582 69.7989 39.582C72.1479 39.582 73.7699 41.463 73.7699 43.782C73.7709 46.102 72.1479 47.982 69.7989 47.982Z" fill="white"/>
<path d="M33.1994 46.334V35.878H28.6544V37.763C27.7064 36.449 26.2564 35.571 24.1124 35.571C19.3334 35.571 16.3564 39.129 16.3564 43.782C16.3564 48.437 19.3344 51.996 24.1124 51.996C26.5874 51.996 28.1384 51.075 29.0604 49.522C29.6194 51.106 30.8614 51.996 33.4354 51.996C34.8364 51.996 35.3034 51.767 35.3034 51.767V47.81C35.3034 47.81 34.9744 47.914 34.4104 47.914C33.4484 47.916 33.1994 47.174 33.1994 46.334ZM24.8474 47.982C22.5004 47.982 21.0164 46.102 21.0164 43.782C21.0164 41.463 22.4994 39.582 24.8474 39.582C27.1954 39.582 28.8064 41.463 28.8064 43.782C28.8064 46.102 27.1944 47.982 24.8474 47.982Z" fill="white"/>
<path d="M112.734 47.916C111.774 47.916 111.524 47.174 111.524 46.334V35.878H106.98V37.763C106.033 36.449 104.58 35.571 102.438 35.571C97.6566 35.571 94.6816 39.129 94.6816 43.782C94.6816 48.437 97.6566 51.996 102.438 51.996C104.911 51.996 106.465 51.075 107.387 49.522C107.946 51.106 109.189 51.996 111.762 51.996C113.163 51.996 113.63 51.767 113.63 51.767V47.81C113.629 47.811 113.299 47.916 112.734 47.916ZM103.175 47.982C100.828 47.982 99.3416 46.102 99.3416 43.782C99.3416 41.463 100.828 39.582 103.175 39.582C105.521 39.582 107.133 41.463 107.133 43.782C107.133 46.102 105.521 47.982 103.175 47.982Z" fill="white"/>
<path d="M54.9189 38.76V35.879H50.3789V51.69H54.9189V43.782C54.9189 41.463 57.4839 40.115 59.8309 40.115V35.571C57.3389 35.571 55.8199 36.925 54.9189 38.76Z" fill="white"/>
<path d="M84.9664 40.3449C84.9664 39.8239 85.5374 39.1629 87.1234 39.1629C89.0014 39.1629 90.1834 40.1539 90.1834 40.1539L92.1984 37.2859C92.1984 37.2859 90.2334 35.4839 86.8704 35.4839C82.4534 35.4839 80.5114 37.9199 80.5114 40.4529C80.5114 46.0039 88.7604 44.6349 88.7604 47.0699C88.7604 47.7989 88.0864 48.3139 86.2414 48.3139C83.6354 48.3139 81.9614 46.7169 81.9614 46.7169L79.2314 49.5059C79.2314 49.5059 81.5784 52.1969 86.5154 52.1969C91.1714 52.1969 93.2524 50.0649 93.2524 46.9169C93.2514 41.1939 84.9664 42.6349 84.9664 40.3449Z" fill="white"/>
<path d="M126.604 11.067L131.875 20.2L126.604 29.332H116.06L110.789 20.2L116.06 11.067H126.604V11.067ZM126.633 29.332L123.437 34.865L126.633 40.399H133.024L136.217 34.865L133.024 29.332H126.633ZM126.633 0L123.437 5.534L126.633 11.067H133.024L136.217 5.534L133.024 0H126.633ZM101.202 14.666L98.0059 20.2L101.202 25.734H107.593L110.788 20.2L107.593 14.666H101.202Z" fill="white"/>
<path d="M151.97 17.1339H150.372L148.268 13.5539L146.133 17.1339H144.643L147.529 12.7699L144.987 8.87988H146.526L148.33 11.9699L150.134 8.87988H151.625L149.085 12.7059L151.97 17.1339Z" fill="white"/>
<path d="M159.921 17.1339H158.605V13.0839C158.605 11.7369 158.73 10.6059 158.76 10.3689L155.153 17.1339H153.6V8.87891H154.902V12.8659C154.902 14.0559 154.791 15.3109 154.761 15.5949L158.34 8.87891H159.921V17.1339Z" fill="white"/>
<path d="M170.953 17.1339H169.665L169.274 13.0209C169.194 12.1109 169.179 11.3099 169.179 10.1679L167.203 16.1899H165.948L164.077 10.1799C164.077 11.1539 164.077 12.1429 164.001 13.0079L163.688 17.1339H162.415L163.153 8.87988H164.846L166.589 14.8739L168.473 8.87988H170.214L170.953 17.1339Z" fill="white"/>
<path d="M179.781 17.1339H178.466V13.0839C178.466 11.7369 178.589 10.6059 178.622 10.3689L175.014 17.1339H173.461V8.87891H174.763V12.8659C174.763 14.0559 174.652 15.3109 174.618 15.5949L178.199 8.87891H179.781V17.1339V17.1339Z" fill="white"/>
<path d="M188.395 8.87891V17.1329H187.075V13.5859C186.482 14.1679 185.554 14.5429 184.549 14.5429C183.012 14.5429 182.182 13.6669 182.182 12.1419V8.87891H183.501V11.9849C183.501 13.0679 183.968 13.5089 184.911 13.5089C185.665 13.5089 186.591 13.1309 187.075 12.5499V8.87891H188.395Z" fill="white"/>
<path d="M197.557 13.4619H192.237C192.378 15.4519 193.288 16.2389 194.542 16.2389C195.373 16.2389 195.988 16.0039 196.709 15.5019L197.286 16.2859C196.489 16.9299 195.576 17.3239 194.448 17.3239C192.175 17.3239 190.84 15.7059 190.84 13.0849C190.84 10.4949 192.129 8.69189 194.23 8.69189C196.441 8.69189 197.585 10.2449 197.585 12.7409C197.584 13.0209 197.572 13.2889 197.557 13.4619ZM196.283 12.3639C196.283 10.6999 195.624 9.74089 194.26 9.74089C193.115 9.74089 192.346 10.5579 192.238 12.4879H196.284V12.3639H196.283Z" fill="white"/>
<path d="M205.415 9.56992L204.77 10.4009C204.219 9.99292 203.688 9.78892 202.983 9.78892C201.632 9.78892 200.77 10.8389 200.77 13.0529C200.77 15.2509 201.632 16.1889 202.983 16.1889C203.688 16.1889 204.19 15.9699 204.799 15.5479L205.414 16.4089C204.706 17.0089 203.878 17.3219 202.934 17.3219C200.737 17.3219 199.355 15.7349 199.355 13.0679C199.355 10.4319 200.723 8.69092 202.934 8.69092C203.892 8.69092 204.66 8.94092 205.415 9.56992Z" fill="white"/>
<path d="M210.935 12.7049L213.776 17.1339H212.222L209.84 13.2729H208.755V17.1339H207.437V8.87891H208.755V12.2349H209.869L212.017 8.87891H213.461L210.935 12.7049Z" fill="white"/>
<path d="M221.821 17.1339H220.505V13.0839C220.505 11.7369 220.63 10.6059 220.663 10.3689L217.055 17.1339H215.5V8.87891H216.804V12.8659C216.804 14.0559 216.694 15.3109 216.661 15.5949L220.239 8.87891H221.821V17.1339Z" fill="white"/>
<path d="M230.984 13.4619H225.665C225.805 15.4519 226.716 16.2389 227.972 16.2389C228.805 16.2389 229.418 16.0039 230.137 15.5019L230.717 16.2859C229.918 16.9299 229.007 17.3239 227.878 17.3239C225.603 17.3239 224.269 15.7059 224.269 13.0849C224.269 10.4949 225.555 8.69189 227.658 8.69189C229.871 8.69189 231.014 10.2449 231.014 12.7409C231.013 13.0209 230.999 13.2889 230.984 13.4619ZM229.715 12.3639C229.715 10.6999 229.052 9.74089 227.687 9.74089C226.541 9.74089 225.773 10.5579 225.665 12.4879H229.716V12.3639H229.715Z" fill="white"/>
<path d="M152.818 27.3698C152.818 29.8948 151.719 31.7008 149.601 31.7008C148.676 31.7008 147.922 31.3698 147.403 30.7268V34.6648L146.084 34.8218V23.2588H147.214L147.324 24.4048C147.921 23.5558 148.8 23.0698 149.771 23.0698C151.938 23.0688 152.818 24.7508 152.818 27.3698ZM151.405 27.3698C151.405 25.1728 150.746 24.1238 149.461 24.1238C148.549 24.1238 147.858 24.7508 147.404 25.4378V29.5638C147.844 30.2238 148.504 30.6178 149.304 30.6178C150.669 30.6178 151.405 29.5808 151.405 27.3698Z" fill="white"/>
<path d="M161.458 27.8408H156.14C156.28 29.8348 157.193 30.6178 158.449 30.6178C159.279 30.6178 159.888 30.3808 160.612 29.8818L161.194 30.6648C160.393 31.3098 159.483 31.7008 158.353 31.7008C156.077 31.7008 154.746 30.0838 154.746 27.4658C154.746 24.8758 156.03 23.0698 158.134 23.0698C160.348 23.0698 161.492 24.6228 161.492 27.1198C161.491 27.4008 161.477 27.6668 161.458 27.8408ZM160.188 26.7408C160.188 25.0808 159.53 24.1238 158.165 24.1238C157.019 24.1238 156.25 24.9388 156.14 26.8648H160.188V26.7408Z" fill="white"/>
<path d="M169.867 30.7748L169.554 31.7008C168.755 31.5918 168.239 31.2618 168.017 30.4298C167.438 31.3098 166.559 31.7008 165.538 31.7008C163.907 31.7008 162.932 30.6828 162.932 29.2068C162.932 27.4488 164.251 26.5078 166.511 26.5078H167.86V25.8478C167.86 24.6208 167.279 24.1508 166.087 24.1508C165.46 24.1508 164.706 24.3098 163.861 24.6078L163.53 23.6348C164.517 23.2588 165.412 23.0688 166.322 23.0688C168.284 23.0688 169.179 24.0748 169.179 25.7838V29.6128C169.179 30.3808 169.429 30.6178 169.867 30.7748ZM167.86 29.3468V27.3838H166.682C165.145 27.3838 164.329 27.9638 164.329 29.1418C164.329 30.1468 164.846 30.6958 165.835 30.6958C166.73 30.6968 167.39 30.2408 167.86 29.3468Z" fill="white"/>
<path d="M175.719 27.087L178.557 31.511H177.006L174.617 27.653H173.536V31.511H172.221V23.259H173.536V26.617H174.652L176.802 23.259H178.243L175.719 27.087Z" fill="white"/>
<path d="M185.57 24.343H182.901V31.511H181.584V24.343H178.84V23.259H185.729L185.57 24.343Z" fill="white"/>
<path d="M193.616 31.5108H192.3V27.4648C192.3 26.1138 192.425 24.9828 192.455 24.7508L188.846 31.5108H187.292V23.2588H188.596V27.2448C188.596 28.4358 188.486 29.6928 188.459 29.9738L192.032 23.2578H193.615V31.5108H193.616Z" fill="white"/>
<path d="M203.014 28.9848C203.014 30.7748 201.556 31.5108 199.561 31.5108H196.676V23.3668C197.492 23.1958 198.43 23.0688 199.325 23.0688C201.304 23.0688 202.589 23.8538 202.589 25.2968C202.589 26.2378 201.994 26.8518 200.926 27.0388C202.306 27.1678 203.014 27.8248 203.014 28.9848ZM197.994 24.1988V26.6458H199.64C200.581 26.6458 201.241 26.3018 201.241 25.3618C201.241 24.4808 200.613 24.0908 199.343 24.0908C198.826 24.0908 198.43 24.1348 197.994 24.1988ZM201.621 28.9688C201.621 28.0438 201.066 27.6218 199.657 27.6218H197.994V30.4768H199.561C200.706 30.4778 201.621 30.1638 201.621 28.9688Z" fill="white"/>
<path d="M211.265 28.704C211.265 30.665 209.742 31.512 208.051 31.512H205.477V23.26H206.794V25.943H207.814C210.337 25.942 211.265 27.024 211.265 28.704ZM209.87 28.704C209.87 27.575 209.367 26.963 207.798 26.963H206.795V30.479H207.94C209.084 30.478 209.87 30.037 209.87 28.704ZM213.855 23.259V31.511H212.536V23.259H213.855Z" fill="white"/>
</svg>
